#!OML:ASF H:\Dans Jumps\Project 1\Capture day 1\Session 1\subject.ASF
:FULLY-SPECIFIED
:DEGREES
327
root 0.299058 16.2235 -12.2062 15.4472 1.17489 -1.14339
lowerback 10.6719 -0.587072 -1.83219
upperback 0.422952 -0.83771 2.85606
thorax -5.48023 -0.329181 4.16331
lowerneck -21.0343 0.819168 -2.41245
upperneck 22.2456 2.15858 -0.804174
head 10.6207 0.672434 0.437142
rclavicle 1.27222e-014 -2.78299e-015
rhumerus -19.467 -10.6739 -79.1531
rradius 27.3625
rwrist 32.8366
rhand -20.2918 -27.1275
rfingers 7.12502
rthumb 6.0581 -57.0209
lclavicle 1.27222e-014 -2.78299e-015
lhumerus -12.5584 9.21892 83.6611
lradius 15.7974
lwrist 2.00086
lhand -27.5711 -5.18293
lfingers 7.12502
lthumb -0.971715 24.7946
rfemur -32.7832 -3.22922 21.7501
rtibia 54.2652
rfoot -29.8871 -15.2778
rtoes -10.6195
lfemur -35.5617 8.14753 -18.8449
ltibia 58.1862
lfoot -24.0046 13.806
ltoes -21.6215
328
root 0.297445 16.4082 -12.047 15.0664 1.55967 -0.886144
lowerback 9.87072 -0.709286 -1.91301
upperback 0.518556 -1.0092 2.81176
thorax -4.91506 -0.424854 4.16383
lowerneck -20.4161 0.780894 -2.48937
upperneck 22.5428 2.11151 -0.786599
head 10.613 0.645111 0.446774
rclavicle 1.25234e-014 -3.97569e-015
rhumerus -19.3091 -10.2863 -79.2632
rradius 27.4159
rwrist 32.9654
rhand -20.1671 -27.074
rfingers 7.12502
rthumb 6.17851 -56.9639
lclavicle 1.25234e-014 -3.97569e-015
lhumerus -12.2915 8.20335 83.8849
lradius 15.9987
lwrist 2.42119
lhand -27.4344 -5.38201
lfingers 7.12502
lthumb -0.839609 24.5961
rfemur -30.506 -3.78844 21.4709
rtibia 51.7941
rfoot -28.289 -14.4421
rtoes -11.4018
lfemur -33.8459 8.06047 -18.8418
ltibia 56.4124
lfoot -22.2293 12.0441
ltoes -22.0301
329
root 0.296349 16.6065 -11.8824 14.6825 1.92972 -0.633213
lowerback 8.99595 -0.819158 -1.99364
upperback 0.638623 -1.16275 2.75222
thorax -4.2858 -0.513903 4.14026
lowerneck -19.7316 0.734259 -2.55564
upperneck 22.8344 2.0422 -0.756053
head 10.5903 0.610564 0.455711
rclavicle -1.05356e-014 1.27222e-014
rhumerus -19.2008 -10.0231 -79.3531
rradius 27.429
rwrist 33.1782
rhand -20.1019 -26.9362
rfingers 7.12502
rthumb 6.24146 -56.8242
lclavicle -1.05356e-014 1.27222e-014
lhumerus -12.0565 7.19907 84.0912
lradius 16.2304
lwrist 2.76771
lhand -27.2328 -5.50267
lfingers 7.12502
lthumb -0.64496 24.4761
rfemur -28.2441 -4.29032 21.1565
rtibia 49.3213
rfoot -26.35 -13.4257
rtoes -12.2922
lfemur -32.1363 8.00116 -18.8167
ltibia 54.5888
lfoot -20.1741 10.0387
ltoes -22.2587
330
root 0.29605 16.818 -11.7134 14.2971 2.26312 -0.391304
lowerback 8.0641 -0.910487 -2.07143
upperback 0.785299 -1.28941 2.6774
thorax -3.60072 -0.591557 4.09127
lowerneck -18.986 0.680233 -2.61307
upperneck 23.1002 1.9518 -0.710513
head 10.5459 0.569678 0.465214
rclavicle -2.14687e-014 2.66371e-014
rhumerus -19.133 -9.86864 -79.4346
rradius 27.4301
rwrist 33.3398
rhand -20.0325 -26.8044
rfingers 7.12502
rthumb 6.30846 -56.6904
lclavicle -2.14687e-014 2.66371e-014
lhumerus -11.8566 6.11017 84.2959
lradius 16.5294
lwrist 3.3116
lhand -27.0843 -5.60287
lfingers 7.12502
lthumb -0.501495 24.3763
rfemur -26.0381 -4.70211 20.8053
rtibia 46.8986
rfoot -24.0672 -12.1947
rtoes -13.1072
lfemur -30.4434 7.96258 -18.767
ltibia 52.7128
lfoot -17.7693 7.86459
ltoes -22.291
331
root 0.296971 17.0423 -11.5414 13.9071 2.53969 -0.171004
lowerback 7.10386 -0.978074 -2.1398
upperback 0.958782 -1.38134 2.59157
thorax -2.87669 -0.653335 4.01902
lowerneck -18.1868 0.625182 -2.64891
upperneck 23.3233 1.85013 -0.667575
head 10.4753 0.52606 0.46839
rclavicle -1.61016e-014 2.06736e-014
rhumerus -19.0992 -9.82199 -79.5077
rradius 27.4235
rwrist 33.4109
rhand -19.984 -26.6696
rfingers 7.12502
rthumb 6.35521 -56.5543
lclavicle -1.61016e-014 2.06736e-014
lhumerus -11.6912 4.95479 84.4945
lradius 16.9089
lwrist 4.10911
lhand -26.9468 -5.66079
lfingers 7.12502
lthumb -0.368744 24.3186
rfemur -23.9251 -5.00204 20.426
rtibia 44.5651
rfoot -21.4088 -10.7845
rtoes -13.736
lfemur -28.7746 7.92293 -18.6875
ltibia 50.783
lfoot -14.943 5.63987
ltoes -22.1753
332
root 0.299633 17.2783 -11.3678 13.5074 2.74799 0.019933
lowerback 6.1469 -1.02019 -2.18946
upperback 1.15421 -1.43571 2.50015
thorax -2.13677 -0.696999 3.92642
lowerneck -17.3467 0.573562 -2.66401
upperneck 23.5013 1.74657 -0.634103
head 10.3803 0.483016 0.464448
rclavicle -1.86858e-014 -5.56597e-015
rhumerus -19.115 -9.83512 -79.5704
rradius 27.4376
rwrist 33.3479
rhand -19.9512 -26.5559
rfingers 7.12502
rthumb 6.38696 -56.4396
lclavicle -1.86858e-014 -5.56597e-015
lhumerus -11.5705 3.77115 84.6856
lradius 17.3776
lwrist 5.1766
lhand -26.7688 -5.57462
lfingers 7.12502
lthumb -0.196822 24.405
rfemur -21.928 -5.18948 20.0288
rtibia 42.3442
rfoot -18.3717 -9.25482
rtoes -13.9792
lfemur -27.1345 7.85132 -18.5766
ltibia 48.8031
lfoot -11.6392 3.48243
ltoes -21.9634
333
root 0.304126 17.5236 -11.1943 13.0976 2.88686 0.17076
lowerback 5.22302 -1.03789 -2.21437
upperback 1.36384 -1.45419 2.41431
thorax -1.40503 -0.72246 3.82448
lowerneck -16.4601 0.524212 -2.67424
upperneck 23.6233 1.64402 -0.609409
head 10.2557 0.440693 0.45671
rclavicle -2.44505e-014 3.22031e-014
rhumerus -19.1738 -9.89143 -79.6152
rradius 27.4607
rwrist 33.1717
rhand -19.9499 -26.4616
rfingers 7.12502
rthumb 6.38815 -56.3453
lclavicle -2.44505e-014 3.22031e-014
lhumerus -11.5149 2.53505 84.8838
lradius 17.9284
lwrist 6.58453
lhand -26.6934 -5.5608
lfingers 7.12502
lthumb -0.123991 24.4189
rfemur -20.0733 -5.26547 19.635
rtibia 40.2496
rfoot -14.9307 -7.74739
rtoes -13.7401
lfemur -25.5393 7.70936 -18.4257
ltibia 46.7933
lfoot -7.85011 1.50193
ltoes -21.6981
334
root 0.310508 17.7758 -11.0227 12.6802 2.97164 0.282193
lowerback 4.35905 -1.03843 -2.21252
upperback 1.57679 -1.44757 2.34102
thorax -0.706159 -0.734244 3.72203
lowerneck -15.5454 0.478886 -2.68776
upperneck 23.7055 1.54802 -0.592224
head 10.1111 0.40068 0.447997
rclavicle 2.60408e-014 -1.35174e-014
rhumerus -19.2825 -9.94337 -79.6396
rradius 27.5021
rwrist 32.903
rhand -19.954 -26.3843
rfingers 7.12502
rthumb 6.38422 -56.2681
lclavicle 2.60408e-014 -1.35174e-014
lhumerus -11.5279 1.34349 85.0813
lradius 18.5266
lwrist 8.13739
lhand -26.6579 -5.66799
lfingers 7.12502
lthumb -0.0897166 24.3117
rfemur -18.3791 -5.25574 19.2564
rtibia 38.2908
rfoot -11.084 -6.42882
rtoes -12.9982
lfemur -24.0114 7.46442 -18.2405
ltibia 44.7888
lfoot -3.5849 -0.190915
ltoes -21.303
335
root 0.318423 18.0313 -10.8547 12.2681 3.02186 0.348782
lowerback 3.56523 -1.02941 -2.17811
upperback 1.78318 -1.427 2.2866
thorax -0.0546453 -0.737381 3.62375
lowerneck -14.6338 0.435404 -2.71762
upperneck 23.7739 1.45714 -0.569778
head 9.96194 0.36209 0.445077
rclavicle 1.39149e-014 -9.14409e-015
rhumerus -19.4352 -9.96248 -79.6446
rradius 27.5547
rwrist 32.5919
rhand -19.9508 -26.2889
rfingers 7.12502
rthumb 6.38732 -56.1726
lclavicle 1.39149e-014 -9.14409e-015
lhumerus -11.6185 0.202106 85.2814
lradius 19.1651
lwrist 9.7558
lhand -26.6828 -5.88646
lfingers 7.12502
lthumb -0.113696 24.0932
rfemur -16.8743 -5.17739 18.9145
rtibia 36.4825
rfoot -6.83165 -5.49551
rtoes -11.8976
lfemur -22.594 7.10276 -18.0199
ltibia 42.8476
lfoot 1.08087 -1.50825
ltoes -20.6015
336
root 0.327374 18.2865 -10.6915 11.8751 3.06129 0.375889
lowerback 2.85001 -1.01977 -2.11907
upperback 1.97301 -1.40596 2.25457
thorax 0.536212 -0.738236 3.53843
lowerneck -13.7505 0.391461 -2.77141
upperneck 23.8506 1.36876 -0.533811
head 9.82101 0.32352 0.451927
rclavicle 5.36719e-015 -3.1408e-014
rhumerus -19.6209 -9.93057 -79.631
rradius 27.6055
rwrist 32.2906
rhand -19.9064 -26.171
rfingers 7.12502
rthumb 6.43022 -56.0533
lclavicle 5.36719e-015 -3.1408e-014
lhumerus -11.7813 -0.877169 85.4857
lradius 19.8114
lwrist 11.3211
lhand -26.7972 -6.23685
lfingers 7.12502
lthumb -0.224257 23.7428
rfemur -15.5836 -5.05886 18.6184
rtibia 34.8498
rfoot -2.2683 -5.04808
rtoes -10.5039
lfemur -21.3335 6.63237 -17.7761
ltibia 41.0415
lfoot 6.01106 -2.38455
ltoes -19.4216
337
root 0.33684 18.5383 -10.5339 11.5164 3.1081 0.370356
lowerback 2.20918 -1.01722 -2.04074
upperback 2.14032 -1.39561 2.24176
thorax 1.06368 -0.742366 3.46544
lowerneck -12.9452 0.350901 -2.82794
upperneck 23.9764 1.28849 -0.497049
head 9.71249 0.28718 0.461502
rclavicle -2.16675e-014 8.74653e-015
rhumerus -19.8336 -9.82225 -79.6103
rradius 27.6586
rwrist 32.0218
rhand -19.8141 -26.0307
rfingers 7.12502
rthumb 6.51931 -55.9103
lclavicle -2.16675e-014 8.74653e-015
lhumerus -12.0098 -1.89087 85.687
lradius 20.4523
lwrist 12.7344
lhand -26.9724 -6.61662
lfingers 7.12502
lthumb -0.393446 23.3628
rfemur -14.5334 -4.93366 18.3725
rtibia 33.4348
rfoot 2.47535 -5.13121
rtoes -8.6418
lfemur -20.2818 6.09807 -17.5265
ltibia 39.4572
lfoot 11.0578 -2.7733
ltoes -17.4439
338
root 0.345915 18.7843 -10.3824 11.206 3.17617 0.342121
lowerback 1.63918 -1.02723 -1.95818
upperback 2.28007 -1.4038 2.24446
thorax 1.52541 -0.753874 3.40873
lowerneck -12.242 0.31277 -2.8822
upperneck 24.1657 1.21366 -0.454287
head 9.64589 0.252634 0.474459
rclavicle 1.98785e-016 -1.31198e-014
rhumerus -20.0633 -9.6363 -79.5892
rradius 27.7043
rwrist 31.8024
rhand -19.6688 -25.8683
rfingers 7.12502
rthumb 6.65958 -55.7435
lclavicle 1.98785e-016 -1.31198e-014
lhumerus -12.2981 -2.84129 85.8786
lradius 21.0754
lwrist 13.9177
lhand -27.1953 -7.01174
lfingers 7.12502
lthumb -0.608679 22.9671
rfemur -13.7482 -4.83791 18.1783
rtibia 32.2924
rfoot 7.22288 -5.75171
rtoes -5.86753
lfemur -19.4834 5.56779 -17.2899
ltibia 38.183
lfoot 16.0473 -2.66839
ltoes -14.4048
339
root 0.353834 19.0222 -10.2377 10.9535 3.27179 0.3028
lowerback 1.13058 -1.05409 -1.88808
upperback 2.39763 -1.4362 2.25791
thorax 1.9328 -0.776267 3.37177
lowerneck -11.6633 0.276844 -2.93111
upperneck 24.4147 1.14375 -0.403906
head 9.62408 0.220119 0.490731
rclavicle -1.80894e-014 1.11319e-014
rhumerus -20.2906 -9.37856 -79.5809
rradius 27.7461
rwrist 31.6323
rhand -19.4698 -25.6997
rfingers 7.12502
rthumb 6.85164 -55.5688
lclavicle -1.80894e-014 1.11319e-014
lhumerus -12.6289 -3.74076 86.0519
lradius 21.693
lwrist 14.8716
lhand -27.4149 -7.32615
lfingers 7.12502
lthumb -0.82077 22.652
rfemur -13.2472 -4.80568 18.033
rtibia 31.484
rfoot 11.843 -6.88533
rtoes -1.63362
lfemur -18.9679 5.10977 -17.086
ltibia 37.3008
lfoot 20.6447 -2.12666
ltoes -10.524
